<svg width="79" height="79" viewBox="0 0 79 79" fill="none" xmlns="http://www.w3.org/2000/svg">
<path d="M60.8959 41.1459C56.8274 41.1459 52.851 42.5251 49.7108 45.0267C45.3131 48.46 42.7916 53.6444 42.7916 59.25C42.7916 69.2336 50.9155 77.3541 60.8957 77.3541C62.6073 77.3541 64.2697 77.1203 65.83 76.6661C73.5819 74.4839 79 67.3211 79 59.25C79 49.2664 70.8761 41.1459 60.8959 41.1459ZM64.9215 73.4996C63.6476 73.8716 62.2915 74.0625 60.8957 74.0625C52.7291 74.0625 46.0832 67.4166 46.0832 59.25C46.0832 54.6647 48.1439 50.425 51.7482 47.6106C54.3191 45.5632 57.568 44.4375 60.8959 44.4375C69.0625 44.4375 75.7084 51.0834 75.7084 59.25C75.7084 65.8531 71.2777 71.7122 64.9215 73.4996ZM48.055 45.03C48.6344 45.03 49.1973 44.7239 49.4967 44.1807C49.9379 43.3841 49.6481 42.3835 48.8516 41.9424C46.5903 40.6949 44.1741 39.7501 41.6856 39.0655C48.1834 35.8297 52.6666 29.1345 52.6666 21.3959C52.6666 10.5037 43.8087 1.64587 32.9166 1.64587C22.0245 1.64587 13.1666 10.5037 13.1666 21.3959C13.1666 29.1312 17.6466 35.82 24.1345 39.059C18.7033 40.5501 13.7164 43.4008 9.63137 47.4856C3.41999 53.697 0 61.9656 0 70.7709V75.7084C0 76.6169 0.737385 77.3543 1.64588 77.3543C2.55438 77.3543 3.29177 76.6169 3.29177 75.7084V70.7709C3.29177 62.8445 6.37277 55.4054 11.962 49.8129C17.5513 44.2204 24.9938 41.1459 32.9168 41.1459C37.9365 41.1459 42.8972 42.4198 47.2619 44.826C47.5047 44.9601 47.7776 45.0303 48.055 45.03ZM16.4584 21.3959C16.4584 12.3207 23.8415 4.93749 32.9166 4.93749C41.9917 4.93749 49.375 12.3207 49.375 21.3959C49.375 30.471 41.9917 37.8543 32.9166 37.8543C23.8415 37.8541 16.4584 30.471 16.4584 21.3959Z" fill="white"/>
<path d="M69.125 57.6041H62.5416V51.0207C62.5416 50.1122 61.8043 49.3748 60.8958 49.3748C59.9873 49.3748 59.25 50.1124 59.25 51.0209V57.6042H52.6666C51.7581 57.6042 51.0208 58.3416 51.0208 59.2501C51.0208 60.1586 51.7581 60.896 52.6666 60.896H59.25V67.4794C59.25 68.3879 59.9874 69.1253 60.8959 69.1253C61.8044 69.1253 62.5418 68.3879 62.5418 67.4794V60.896H69.125C70.0335 60.896 70.7709 60.1586 70.7709 59.2501C70.7709 58.3416 70.0335 57.6041 69.125 57.6041Z" fill="white"/>
</svg>
