<svg width="119" height="119" viewBox="0 0 119 119" fill="none" xmlns="http://www.w3.org/2000/svg">
<g filter="url(#filter0_d_85_259)">
<path d="M59.5 0C28.8484 0 4 24.8484 4 55.5C4 86.1516 28.8484 111 59.5 111C90.1538 111 115 86.1516 115 55.5C115 24.8484 90.1538 0 59.5 0ZM59.5 99.9C35.0178 99.9 15.1 79.9822 15.1 55.5C15.1 31.0178 35.0178 11.1 59.5 11.1C83.9822 11.1 103.9 31.0178 103.9 55.5C103.9 79.9822 83.9822 99.9 59.5 99.9Z" fill="#FF4B4B"/>
<path d="M79.6864 51.615L52.7711 36.075C49.0704 33.9393 46.0424 35.6865 46.0424 39.96V71.04C46.0424 75.3135 49.0704 77.0628 52.7711 74.925L79.6864 59.385C83.3871 57.2493 83.3871 53.7507 79.6864 51.615Z" fill="#FF4B4B"/>
</g>
<defs>
<filter id="filter0_d_85_259" x="0" y="0" width="119" height="119" filterUnits="userSpaceOnUse" color-interpolation-filters="sRGB">
<feFlood flood-opacity="0" result="BackgroundImageFix"/>
<feColorMatrix in="SourceAlpha" type="matrix" values="0 0 0 0 0 0 0 0 0 0 0 0 0 0 0 0 0 0 127 0" result="hardAlpha"/>
<feOffset dy="4"/>
<feGaussianBlur stdDeviation="2"/>
<feComposite in2="hardAlpha" operator="out"/>
<feColorMatrix type="matrix" values="0 0 0 0 0 0 0 0 0 0 0 0 0 0 0 0 0 0 0.81 0"/>
<feBlend mode="normal" in2="BackgroundImageFix" result="effect1_dropShadow_85_259"/>
<feBlend mode="normal" in="SourceGraphic" in2="effect1_dropShadow_85_259" result="shape"/>
</filter>
</defs>
</svg>
