<svg width="79" height="79" viewBox="0 0 79 79" fill="none" xmlns="http://www.w3.org/2000/svg">
<path d="M57.4675 39.3C54.2078 39.2978 51.0206 40.2617 48.3084 42.07C46.4259 41.1883 44.459 40.4998 42.4377 40.0147C46.0839 38.3484 49.05 35.4844 50.8431 31.8989C52.6363 28.3134 53.1484 24.2222 52.2944 20.3053C51.4403 16.3884 49.2716 12.8817 46.1487 10.3681C43.0258 7.85441 39.1366 6.48514 35.1277 6.48786C16.19 6.77794 10.9093 32.0802 27.8289 40.0197C22.6803 41.2489 17.9262 43.7602 14.0085 47.3198C10.0908 50.8794 7.13687 55.3719 5.42128 60.3794C3.38456 65.7897 8.08135 71.9517 13.7928 71.7863H52.7287C55.0108 72.4678 57.4129 72.65 59.7716 72.3204C62.1304 71.9908 64.3905 71.1573 66.3984 69.8763C68.4063 68.5954 70.1149 66.8972 71.4079 64.8971C72.701 62.897 73.5483 60.642 73.8921 58.2853C74.236 55.9285 74.0684 53.5254 73.4007 51.2392C72.733 48.9531 71.581 46.8375 70.0228 45.0362C68.4646 43.235 66.5369 41.7904 64.3706 40.8006C62.2043 39.8107 59.8491 39.299 57.4675 39.3ZM20.0252 24.058C20.0297 20.0539 21.6224 16.2152 24.4537 13.3839C27.285 10.5526 31.1237 8.95995 35.1277 8.95537C55.1616 9.78487 55.1567 38.3335 35.1277 39.1605C31.1237 39.156 27.285 37.5633 24.4537 34.732C21.6224 31.9007 20.0297 28.062 20.0252 24.058ZM13.7916 69.3188C9.72431 69.4385 6.29768 65.054 7.75548 61.1793C9.71019 55.4734 13.3995 50.5212 18.3074 47.0154C23.2153 43.5096 29.0963 41.6256 35.1277 41.6268C38.9059 41.6165 42.6485 42.3567 46.1384 43.8042C38.5346 50.5662 39.4197 63.6024 47.7579 69.3188H13.7916ZM57.4675 70.0174C53.7226 70.0132 50.1323 68.5237 47.4843 65.8756C44.8363 63.2276 43.3468 59.6373 43.3425 55.8925C44.1177 37.1547 70.8197 37.1584 71.5924 55.8925C71.5882 59.6373 70.0986 63.2276 67.4506 65.8756C64.8026 68.5237 61.2123 70.0132 57.4675 70.0174Z" fill="white"/>
<path d="M67.4955 54.9321L61.3273 49.9613C61.072 49.7611 60.748 49.6695 60.4256 49.7063C60.1032 49.7431 59.8083 49.9054 59.6047 50.158C59.401 50.4107 59.3051 50.7334 59.3375 51.0562C59.37 51.3791 59.5283 51.6762 59.7782 51.8832L63.2246 54.6593H48.2146C48.0493 54.6541 47.8846 54.6821 47.7303 54.7418C47.5761 54.8014 47.4354 54.8915 47.3166 55.0065C47.1978 55.1216 47.1034 55.2594 47.0389 55.4117C46.9744 55.564 46.9412 55.7277 46.9412 55.8931C46.9412 56.0585 46.9744 56.2222 47.0389 56.3745C47.1034 56.5267 47.1978 56.6645 47.3166 56.7796C47.4354 56.8947 47.5761 56.9847 47.7303 57.0444C47.8846 57.104 48.0493 57.1321 48.2146 57.1268H63.2246L59.7782 59.9017C59.5838 60.0641 59.4437 60.282 59.3766 60.5263C59.3096 60.7706 59.3189 61.0295 59.4033 61.2684C59.4877 61.5072 59.643 61.7146 59.8486 61.8626C60.0542 62.0106 60.3001 62.0922 60.5534 62.0964C60.8348 62.0972 61.108 62.0013 61.3273 61.8249L67.4967 56.854C67.6388 56.7374 67.7533 56.5908 67.8319 56.4246C67.9105 56.2584 67.9513 56.0769 67.9513 55.8931C67.9513 55.7093 67.9105 55.5277 67.8319 55.3615C67.7533 55.1954 67.6376 55.0487 67.4955 54.9321Z" fill="white"/>
</svg>
