<svg xmlns="http://www.w3.org/2000/svg" version="1.1" xmlns:xlink="http://www.w3.org/1999/xlink" xmlns:svgjs="http://svgjs.com/svgjs" width="512" height="512" x="0" y="0" viewBox="0 0 24 24" style="enable-background:new 0 0 512 512" xml:space="preserve" fill-rule="evenodd"><g><path d="M10 3.5c-3.587 0-6.5 2.913-6.5 6.5s2.913 6.5 6.5 6.5 6.5-2.913 6.5-6.5-2.913-6.5-6.5-6.5zm0 1c3.036 0 5.5 2.464 5.5 5.5s-2.464 5.5-5.5 5.5-5.5-2.464-5.5-5.5S6.964 4.5 10 4.5z" fill="#FFFFFF" data-original="#000000" opacity="1"></path><path d="m20.354 19.646-5.759-5.758a.5.5 0 0 0-.707.707l5.758 5.759a.502.502 0 0 0 .708-.708z" fill="#FFFFFF" data-original="#000000" opacity="1"></path></g></svg>